<?xml version="1.0" encoding="UTF-8" standalone="no"?>
<svg
   viewBox="0 0 64 64"
   version="1.1"
   id="svg44"
   sodipodi:docname="favicon.svg"
   inkscape:version="1.1.2 (0a00cf5339, 2022-02-04)"
   xmlns:inkscape="http://www.inkscape.org/namespaces/inkscape"
   xmlns:sodipodi="http://sodipodi.sourceforge.net/DTD/sodipodi-0.dtd"
   xmlns="http://www.w3.org/2000/svg"
   xmlns:svg="http://www.w3.org/2000/svg"
   xmlns:rdf="http://www.w3.org/1999/02/22-rdf-syntax-ns#"
   xmlns:cc="http://creativecommons.org/ns#"
   xmlns:dc="http://purl.org/dc/elements/1.1/">
  <defs
     id="defs48" />
  <sodipodi:namedview
     id="namedview46"
     pagecolor="#ffffff"
     bordercolor="#666666"
     borderopacity="1.0"
     inkscape:pageshadow="2"
     inkscape:pageopacity="0.0"
     inkscape:pagecheckerboard="0"
     showgrid="false"
     inkscape:zoom="12.21875"
     inkscape:cx="31.959079"
     inkscape:cy="31.959079"
     inkscape:window-width="1850"
     inkscape:window-height="1016"
     inkscape:window-x="0"
     inkscape:window-y="0"
     inkscape:window-maximized="1"
     inkscape:current-layer="svg44" />
  <title
     id="title2">wind face</title>
  <path
     fill="#c8d2da"
     d="M 22.710487,54.406526 0,37.884432 V 64 c 2.3456841,-6.92862 22.710487,-9.593474 22.710487,-9.593474 z"
     id="path4"
     style="stroke-width:1.06608" />
  <path
     fill="#e4eef7"
     d="M 17.912497,53.23399 C 8.4231381,47.797688 6.7171863,36.178925 6.7171863,36.178925 c 0,0 -1.4927081,-6.182461 6.1840767,-17.268253 4.26488,-6.075867 16.952899,-10.6594158 18.65885,-6.075867 3.518526,9.593474 0,12.791299 1.492708,15.13637 1.812575,2.878042 3.092039,3.83739 4.051636,4.476955 0.746354,0.426376 1.172843,1.065941 1.172843,2.238477 -0.106622,1.705506 -2.985417,2.025289 -3.092039,2.451666 -0.213244,1.279129 0.639732,1.8121 2.13244,2.771448 1.386086,0.959347 -1.172841,2.025289 -0.639732,5.116519 0.53311,3.197825 0.746355,4.37036 0.746355,4.37036 -1.172842,0.959348 -3.625149,0.959348 -3.305282,2.878043 0.639732,4.476954 -4.904612,7.461591 -16.206545,0.959347"
     id="path6"
     style="stroke-width:1.06608" />
  <path
     fill="#91999f"
     d="m 34.758774,43.427328 c 0.639732,-0.426377 1.279464,-0.959348 1.812573,-1.492318 0.426489,-0.532971 0.852977,-1.172536 0.426489,-2.345072 0.426488,0.106594 0.852975,0.639565 1.06622,1.27913 0.213244,0.639565 0,1.492318 -0.213245,2.025289 -0.213243,0.532971 -0.53311,1.065941 -0.852975,1.492318 0.319865,0.426377 0.746354,0.959348 0.852975,1.598912 0.213245,0.639565 0.213245,1.27913 0.106622,1.812101 -0.106622,0.532971 -0.213243,1.065942 -0.426487,1.598912 -0.426489,-1.065941 -0.639732,-2.025289 -1.066221,-2.558259 l -0.639732,-0.639565 c -0.213243,-0.213189 -0.53311,-0.426377 -0.959597,-0.639565 l -1.705953,-1.065942 1.599331,-1.065941"
     id="path8"
     style="stroke-width:1.06608" />
  <path
     fill="#adb5bc"
     d="m 31.133625,29.88987 c -4.371502,3.304419 -7.99665,-0.213188 -7.99665,-0.213188 3.838392,0.959347 7.99665,0.213188 7.99665,0.213188"
     id="path10"
     style="stroke-width:1.06608" />
  <path
     fill="#c8d2da"
     d="m 30.387271,39.909721 c 0.53311,0.53297 0.959599,1.279129 1.172842,2.025289 0.319866,0.746159 0.533111,1.598912 0.639732,2.451665 0.106622,0.852753 0,1.812101 -0.213243,2.664854 -0.213245,0.852753 -0.639732,1.598912 -1.172843,2.131883 0.213244,-0.852753 0.319866,-1.598912 0.426489,-2.345071 v -2.345072 c -0.106623,-1.492318 -0.426489,-2.984636 -0.852977,-4.583548"
     id="path12"
     style="stroke-width:1.06608" />
  <g
     fill="#91999f"
     id="g16"
     transform="matrix(1.0662201,0,0,1.0659416,-2.1324401,-2.0883765)">
    <path
       d="m 27.6,21.3 c -3.2,0 -6.4,3.1 -6.4,3.1 6.9,-3.4 11.7,0 11.7,0 -0.5,-0.8 -2.8,-3.1 -5.3,-3.1 m -11.9,1.6 c 0,0 -6.3,21.5 0,39.1 H 11 c 0,0 -6.8,-19.5 0.8,-39.7 l 3.9,0.6"
       id="path14" />
  </g>
  <path
     fill="#adb5bc"
     d="m 10.555578,22.215091 c 0,0 -6.7171858,23.024337 0,41.784909 H 5.6509662 c 0,0 -7.2502962,-20.892455 0.8529761,-42.424474 l 4.0516357,0.639565"
     id="path18"
     style="stroke-width:1.06608" />
  <path
     fill="#91999f"
     d="m 6.6105642,22.321685 c 0,0 -6.71718625,22.917743 0,41.678315 H 0 V 37.884432 Z"
     id="path20"
     style="stroke-width:1.06608" />
  <path
     fill="#c8d2da"
     d="m 18.658851,2.6017664 c 0,0 3.73177,-1.1725358 5.544344,-0.1065942 11.941665,6.92862 6.184076,7.9945618 2.025818,6.289055 C 23.136975,7.5050975 18.658851,2.6017664 18.658851,2.6017664"
     id="path22"
     style="stroke-width:1.06608" />
  <path
     fill="#adb5bc"
     d="m 27.295233,8.0380683 c 0,0 3.838392,-1.385724 5.544345,-0.1065942 7.890027,5.9692729 1.279464,17.8012239 1.279464,17.8012239 0,0 1.492708,-11.512169 -2.665551,-13.32427 -3.092038,-1.279129 -4.158258,-4.3703597 -4.158258,-4.3703597"
     id="path24"
     style="stroke-width:1.06608" />
  <g
     fill="#c8d2da"
     id="g32"
     transform="matrix(1.0662201,0,0,1.0659416,-2.1324401,-2.0883765)">
    <path
       d="M 2,4.5 C 13.9,-1.6 21,5.2 21,5.2 L 2,27.4 Z"
       id="path26" />
    <path
       d="m 20.9,17.6 c 7.1,-6.9 10.6,-4 10.6,-4 C 21,-5.1 2,20.9 2,37.5 2,37.5 14.5,23.8 20.9,17.6 Z"
       id="path28" />
    <path
       d="M 17.4,27.7 C 25.6,18.6 29.2,10.4 29.2,10.4 20.5,22.3 5.1,29.1 2,58.2 c 0,0 7.8,-22 15.4,-30.5"
       id="path30" />
  </g>
  <path
     fill="#adb5bc"
     d="M 12.474774,12.408428 C 20.471425,4.2006787 26.655501,6.9721267 26.655501,6.9721267 17.805875,-4.9664187 2.6655501,1.8556073 0,22.534873 v 15.349559 c 0,0 5.9708322,-18.653978 12.474774,-25.476004 z"
     id="path34"
     style="stroke-width:1.06608" />
  <g
     fill="#42ade2"
     id="g42"
     transform="matrix(1.0662201,0,0,1.0659416,-2.1324401,-2.0883765)">
    <path
       d="m 38,43.3 c 4.8,0.9 10.2,-1.6 12.3,-6 1.7,-3.6 1,-10.3 -3.7,-11.2 -3.7,-0.7 -6.1,3.1 -5.6,6.3 1.1,6.7 9,2.1 5.5,-1.7 1.7,3.1 -2.7,5.8 -4.2,2.8 -1.3,-2.7 1.2,-7.3 4.6,-5.5 3.8,2 2.8,8 0.3,10.5 -2.4,2.6 -5.8,3.9 -9.2,4.8 m 19.2,-13 c 1.2,1.8 -1.3,4.3 -2.8,2.2 -1.6,-2.2 1.1,-5.8 3.5,-3.6 4.3,4.5 -2.7,10.4 -7.6,11.6 3.9,0.2 8.5,-1.9 10,-5.7 1,-2.6 0.5,-6.8 -2.5,-8 -3.3,-1.3 -6.1,2.8 -4.5,5.6 2.1,3.8 6.3,0.4 3.9,-2.1"
       id="path36" />
    <path
       d="m 38,44.3 c 4.4,0.4 9.7,0.7 13.3,3.4 2.8,2.1 3.8,7 1.3,9.7 -2.5,2.7 -6.1,0 -5.8,-3.2 0.3,-3.8 5.8,-2.7 4.7,0.9 2.6,-4.8 -6.9,-6.7 -5.6,0.8 0.8,4.7 7.4,5.6 9.3,1.2 C 59.8,46 45.7,42.2 38,44.3"
       id="path38" />
    <path
       d="m 47.8,42.9 c 3.9,0.2 13.6,0.3 12.5,5.9 -0.5,2.3 -3.6,2.3 -3.4,-0.3 0.1,-2.1 2.8,-1.6 2.4,0.5 2,-4 -5.6,-3.5 -3.3,1.3 1.5,3.2 5.7,1.3 6,-1.9 0.6,-7.4 -9.7,-6.6 -14.2,-5.5"
       id="path40" />
  </g>
  <metadata
     id="metadata865">
    <rdf:RDF>
      <cc:Work
         rdf:about="">
        <dc:title>wind face</dc:title>
      </cc:Work>
    </rdf:RDF>
  </metadata>
</svg>
